<?xml version="1.0" standalone="no"?>
<!DOCTYPE svg PUBLIC "-//W3C//DTD SVG 20010904//EN"
 "http://www.w3.org/TR/2001/REC-SVG-20010904/DTD/svg10.dtd">
<svg version="1.0" xmlns="http://www.w3.org/2000/svg"
 width="200.000000pt" height="200.000000pt" viewBox="0 0 200.000000 200.000000"
 preserveAspectRatio="xMidYMid meet">
<metadata>
</metadata>
<g transform="translate(0.000000,200.000000) scale(0.100000,-0.100000)"
fill="#000000" stroke="none">
<path d="M870 1794 c-216 -46 -401 -222 -461 -439 -24 -86 -26 -246 -4 -340
58 -248 236 -510 512 -755 l82 -72 63 53 c273 233 464 506 528 758 28 106 25
293 -6 381 -106 306 -407 480 -714 414z m213 -25 c65 -10 126 -31 182 -62 11
-6 31 -16 45 -23 41 -22 116 -92 146 -137 16 -23 32 -44 35 -47 10 -9 57 -114
68 -155 17 -63 24 -194 12 -260 -18 -108 -31 -160 -41 -163 -6 -2 -8 -8 -5
-12 12 -19 -167 -325 -197 -338 -5 -2 -8 -7 -8 -11 0 -25 -296 -321 -320 -321
-6 0 -35 22 -63 49 -29 27 -65 59 -80 72 -101 86 -285 334 -346 464 -18 39
-36 77 -40 85 -47 89 -61 338 -26 445 22 70 56 135 93 185 41 53 123 127 164
147 21 10 38 21 38 26 0 4 6 7 13 7 8 0 29 8 48 17 32 17 137 40 187 42 13 1
56 -4 95 -10z"/>
<path d="M920 1734 c-77 -15 -164 -51 -232 -97 -43 -28 -78 -55 -78 -60 0 -5
-16 -25 -35 -45 -19 -20 -35 -43 -35 -49 0 -7 -4 -13 -10 -13 -5 0 -10 -9 -10
-20 0 -11 -4 -20 -10 -20 -5 0 -10 -9 -10 -20 0 -11 -5 -20 -10 -20 -6 0 -10
-6 -9 -12 2 -7 -3 -40 -10 -73 -38 -172 19 -363 145 -489 99 -99 235 -156 372
-156 80 0 85 1 114 30 22 22 28 37 24 53 -3 12 -8 41 -12 64 -9 58 -48 97 -89
89 -75 -13 -94 -19 -90 -27 9 -14 -31 -29 -83 -31 -41 -2 -56 3 -88 27 -50 38
-64 51 -64 63 0 6 -6 12 -12 15 -12 4 -25 27 -56 97 -19 41 -28 131 -20 194 4
32 9 61 12 63 2 2 22 -15 45 -38 22 -23 41 -39 41 -36 0 3 14 1 30 -5 35 -12
35 -31 -1 -36 -13 -2 -32 -11 -41 -19 -52 -46 24 -183 101 -183 40 0 96 37
159 106 34 37 62 69 62 71 0 15 120 111 120 96 0 -4 6 0 14 9 26 35 151 44
177 12 9 -11 6 -16 -14 -23 -14 -5 -28 -14 -31 -19 -14 -22 -56 -22 -86 0
l-30 22 -25 -24 c-24 -22 -24 -25 -9 -48 15 -24 13 -92 -4 -92 -12 0 -7 -84 7
-108 7 -13 11 -35 10 -50 -1 -15 2 -35 6 -44 4 -10 4 -37 1 -60 -14 -89 -12
-110 10 -124 19 -13 28 -11 92 22 79 39 156 111 199 184 14 25 29 47 33 50 4
3 17 41 28 86 26 94 28 207 8 276 -8 25 -12 49 -8 53 4 3 2 9 -4 13 -6 4 -20
27 -32 52 -34 71 -124 172 -189 212 -32 20 -87 46 -123 57 -63 21 -199 35
-250 25z m230 -55 c182 -53 321 -215 351 -410 32 -206 -74 -415 -264 -521 -36
-20 -68 -34 -70 -31 -3 2 0 20 6 39 8 25 21 41 48 54 60 31 129 109 167 187
28 59 35 89 39 156 7 102 -2 121 -70 153 -111 51 -231 15 -337 -100 -145 -159
-186 -196 -217 -196 -18 0 -38 9 -52 24 -24 25 -52 95 -44 108 2 5 22 8 44 8
47 0 84 22 105 62 20 39 12 47 -38 36 -93 -21 -158 32 -158 130 0 52 -14 54
-39 5 -114 -226 -24 -487 206 -596 62 -29 77 -32 166 -32 l98 0 -3 -30 c-3
-30 -3 -30 -72 -33 -312 -14 -565 268 -517 577 35 226 213 402 436 430 76 10
132 5 215 -20z m258 -488 c6 -82 -37 -209 -91 -271 -30 -34 -109 -100 -119
-100 -21 0 -4 30 32 55 85 59 141 168 148 288 5 85 25 103 30 28z m-48 -11 c0
-62 -33 -163 -68 -210 -29 -39 -93 -99 -104 -100 -5 0 -8 17 -8 38 0 30 7 45
31 68 47 44 80 117 82 180 2 48 5 55 27 63 39 15 40 14 40 -39z m-167 26 c7
-18 -1 -26 -25 -26 -11 0 -18 7 -18 20 0 23 35 28 43 6z m76 -65 c-11 -70 -77
-187 -95 -169 -4 4 -9 30 -12 58 -4 41 0 56 18 83 21 30 76 77 91 77 3 0 3
-22 -2 -49z m-201 -283 c29 -29 13 -38 -63 -38 -41 0 -75 3 -75 8 0 11 71 40
101 41 14 1 30 -4 37 -11z m-60 -53 c58 0 82 -4 82 -12 0 -7 -12 -16 -26 -19
-33 -8 -146 1 -199 17 -34 10 -37 13 -20 20 11 4 34 5 50 1 17 -4 67 -7 113
-7z"/>
<path d="M1105 1590 c-4 -7 -3 -16 3 -22 14 -14 45 -2 40 15 -6 16 -34 21 -43
7z"/>
<path d="M950 1495 c-11 -13 -11 -19 3 -33 20 -19 41 -5 35 24 -4 24 -22 28
-38 9z"/>
<path d="M1060 1460 c0 -15 5 -20 18 -18 9 2 17 10 17 18 0 8 -8 16 -17 18
-13 2 -18 -3 -18 -18z"/>
<path d="M1143 1394 c-3 -8 -1 -20 5 -26 16 -16 42 -2 42 22 0 24 -38 28 -47
4z"/>
</g>
</svg>
